<mxfile host="app.diagrams.net" modified="2024-01-21T09:58:32.323Z" agent="Mozilla/5.0 (Windows NT 10.0; Win64; x64) AppleWebKit/537.36 (KHTML, like Gecko) Chrome/121.0.0.0 Safari/537.36" etag="PXa3vtq_lIq8B-Q3wHxz" version="22.1.21" type="github">
  <diagram id="C5RBs43oDa-KdzZeNtuy" name="Page-1">
    <mxGraphModel dx="1430" dy="757" grid="1" gridSize="10" guides="1" tooltips="1" connect="1" arrows="1" fold="1" page="1" pageScale="1" pageWidth="827" pageHeight="1169" math="0" shadow="0">
      <root>
        <mxCell id="WIyWlLk6GJQsqaUBKTNV-0" />
        <mxCell id="WIyWlLk6GJQsqaUBKTNV-1" parent="WIyWlLk6GJQsqaUBKTNV-0" />
        <mxCell id="i1Yw97RGADJcUQhaUMih-2" value="Dinosaur" style="swimlane;fontStyle=1;align=center;verticalAlign=top;childLayout=stackLayout;horizontal=1;startSize=26;horizontalStack=0;resizeParent=1;resizeParentMax=0;resizeLast=0;collapsible=1;marginBottom=0;whiteSpace=wrap;html=1;" vertex="1" parent="WIyWlLk6GJQsqaUBKTNV-1">
          <mxGeometry x="270" y="120" width="300" height="570" as="geometry" />
        </mxCell>
        <mxCell id="i1Yw97RGADJcUQhaUMih-3" value="+ id: int&lt;br&gt;+ 姓名: String&lt;br&gt;+ 种族: String&lt;br&gt;+ 等级: int&lt;br&gt;+ 阶段: int&lt;br&gt;+ 最大饱食度:int&lt;br&gt;+ 当前饱食度:int&lt;br&gt;+ 饥饿速度:int&lt;br&gt;+ 食物种类:String&lt;br&gt;+ 初始武力值:int&lt;br&gt;+ 初始魅力值:int&lt;br&gt;+ 武力值浮动比例:double&lt;br&gt;+ 魅力值浮动比例:double&lt;br&gt;+ 当前武力值:int&lt;br&gt;+ 当前魅力值:int&lt;br&gt;+ 基础购买价格:int&lt;br&gt;+ 出售价格:int" style="text;strokeColor=none;fillColor=none;align=left;verticalAlign=top;spacingLeft=4;spacingRight=4;overflow=hidden;rotatable=0;points=[[0,0.5],[1,0.5]];portConstraint=eastwest;whiteSpace=wrap;html=1;" vertex="1" parent="i1Yw97RGADJcUQhaUMih-2">
          <mxGeometry y="26" width="300" height="294" as="geometry" />
        </mxCell>
        <mxCell id="i1Yw97RGADJcUQhaUMih-4" value="" style="line;strokeWidth=1;fillColor=none;align=left;verticalAlign=middle;spacingTop=-1;spacingLeft=3;spacingRight=3;rotatable=0;labelPosition=right;points=[];portConstraint=eastwest;strokeColor=inherit;" vertex="1" parent="i1Yw97RGADJcUQhaUMih-2">
          <mxGeometry y="320" width="300" height="8" as="geometry" />
        </mxCell>
        <mxCell id="i1Yw97RGADJcUQhaUMih-5" value="+ 阶段变化():void&lt;span style=&quot;white-space: pre;&quot;&gt;&#x9;&lt;/span&gt;//蛋-&amp;gt;成龙&lt;br&gt;+ 进食(food, 数量):void&lt;span style=&quot;white-space: pre;&quot;&gt;&#x9;&lt;/span&gt;//增加当前饱食度&lt;br&gt;+ 饥饿():void&lt;span style=&quot;white-space: pre;&quot;&gt;&#x9;&lt;/span&gt;//根据时间推移降低饱食度&lt;br&gt;+ 死亡():void&lt;span style=&quot;white-space: pre;&quot;&gt;&#x9;&lt;/span&gt;//变成龙尸&lt;br&gt;+ 购买():int&lt;br&gt;+ 出售():int&lt;br&gt;+ 制作饲料():food&lt;span style=&quot;white-space: pre;&quot;&gt;&#x9;&lt;/span&gt;//根据阶段获得饲料&lt;br&gt;+ Dinosaur(阶段):void&lt;span style=&quot;white-space: pre;&quot;&gt;&#x9;&lt;/span&gt;//初始化龙&lt;span style=&quot;white-space: pre;&quot;&gt;&#x9;&lt;/span&gt;&lt;br&gt;&lt;span style=&quot;white-space: pre;&quot;&gt;&#x9;&lt;/span&gt;//根据浮动比例确定武力值魅力值&lt;br&gt;+ 战斗():void........." style="text;strokeColor=none;fillColor=none;align=left;verticalAlign=top;spacingLeft=4;spacingRight=4;overflow=hidden;rotatable=0;points=[[0,0.5],[1,0.5]];portConstraint=eastwest;whiteSpace=wrap;html=1;" vertex="1" parent="i1Yw97RGADJcUQhaUMih-2">
          <mxGeometry y="328" width="300" height="242" as="geometry" />
        </mxCell>
        <mxCell id="i1Yw97RGADJcUQhaUMih-7" value="food" style="swimlane;fontStyle=1;align=center;verticalAlign=top;childLayout=stackLayout;horizontal=1;startSize=26;horizontalStack=0;resizeParent=1;resizeParentMax=0;resizeLast=0;collapsible=1;marginBottom=0;whiteSpace=wrap;html=1;" vertex="1" parent="WIyWlLk6GJQsqaUBKTNV-1">
          <mxGeometry x="630" y="120" width="160" height="260" as="geometry" />
        </mxCell>
        <mxCell id="i1Yw97RGADJcUQhaUMih-8" value="+ id: int&lt;br&gt;+ 种类:String&lt;br&gt;+ 饱食度:int&lt;br&gt;+ 购买价格:int&lt;br&gt;+ 出售价格:int&lt;br&gt;+ 数量:int" style="text;strokeColor=none;fillColor=none;align=left;verticalAlign=top;spacingLeft=4;spacingRight=4;overflow=hidden;rotatable=0;points=[[0,0.5],[1,0.5]];portConstraint=eastwest;whiteSpace=wrap;html=1;" vertex="1" parent="i1Yw97RGADJcUQhaUMih-7">
          <mxGeometry y="26" width="160" height="124" as="geometry" />
        </mxCell>
        <mxCell id="i1Yw97RGADJcUQhaUMih-9" value="" style="line;strokeWidth=1;fillColor=none;align=left;verticalAlign=middle;spacingTop=-1;spacingLeft=3;spacingRight=3;rotatable=0;labelPosition=right;points=[];portConstraint=eastwest;strokeColor=inherit;" vertex="1" parent="i1Yw97RGADJcUQhaUMih-7">
          <mxGeometry y="150" width="160" height="8" as="geometry" />
        </mxCell>
        <mxCell id="i1Yw97RGADJcUQhaUMih-10" value="+ 特殊能力():void&lt;br&gt;+ 购买(数量):int&lt;br&gt;+ 出售(数量):int&lt;br&gt;..." style="text;strokeColor=none;fillColor=none;align=left;verticalAlign=top;spacingLeft=4;spacingRight=4;overflow=hidden;rotatable=0;points=[[0,0.5],[1,0.5]];portConstraint=eastwest;whiteSpace=wrap;html=1;" vertex="1" parent="i1Yw97RGADJcUQhaUMih-7">
          <mxGeometry y="158" width="160" height="102" as="geometry" />
        </mxCell>
      </root>
    </mxGraphModel>
  </diagram>
</mxfile>
